<svg width="265" height="90" viewBox="0 0 265 90" xmlns="http://www.w3.org/2000/svg"><title>BAC15016-logo_RGB_FINAL</title><g fill="none" fill-rule="evenodd"><path fill="#CB333B" fill-rule="nonzero" d="M.9 79.9h212.9v9.3H.9z"/><g fill-rule="nonzero" fill="#212322"><path d="M32.5 24.7c0 4.6-3.6 7.7-10.9 7.7h-9.9V16.8h9c8.2 0 11.8 2.6 11.8 7.9zm-20.8 17h10.4c8.8 0 12.9 2.2 12.9 8.6 0 8-7.8 9-13.4 9h-10l.1-17.6zm31.7-18.8c0-11.1-9.5-15.3-18.7-15.3H.9v61h22c11.5 0 23.1-4.1 23.1-17.4 0-7.8-5.5-13.9-13.2-14.7v-.2c6.3-2 10.6-6.5 10.6-13.4zM50 68.5h10.3V46.4c0-2.2 1.4-10.4 11.1-10.4 1.6 0 3.3.3 5 .8v-10c-1.2-.3-2.4-.6-3.7-.6-5.4 0-10 2.8-12.2 7.6h-.2v-6.5H50v41.2zM104.5 52.3c0 5.8-3.4 9.5-10.4 9.5-3.4 0-7.2-1.6-7.2-5.4 0-5.9 9.8-6.4 15.5-6.4h2.2l-.1 2.3zm9.9 16.2V44.8c0-5.9 0-18.6-17.7-18.6-6.5 0-13 2-17.6 6.6l5.4 5.4c2.8-2.6 6.7-4.3 11-4.3 5.5 0 9.5 2.7 9.5 7.8v1.1h-2.6c-10.3 0-26 .9-26 14.4 0 8.2 7.4 12.4 15.1 12.4 5.5 0 10.3-2.1 13.3-6.7h.3v5.7l9.3-.1zM128.4 47.9c0-6.5 4.6-12.4 12.1-12.4s12.1 5.9 12.1 12.4-4.6 12.4-12.1 12.4-12.1-6-12.1-12.4m-10.3 0c0 12.2 7.7 21.7 20.4 21.7 5.8 0 11.2-2.2 14.2-7.2h.2v6.2h9.8V8.2l-10.3 5.2v19.1h-.3c-2.2-2.7-6.3-6.3-14-6.3-11.8 0-20 9.4-20 21.7"/></g><path fill="#212322" fill-rule="nonzero" d="M178.4.3l-10.3 5.2v63h10.3z"/><path d="M-2-3h270.2v94.7H-2z"/><g fill-rule="nonzero" fill="#212322"><path d="M212.7 43.7h-21.2c.8-5.9 4.6-9.8 10.7-9.8 6.5 0 10.4 3.8 10.5 9.8zm10.4 7.8v-2.8c0-14.4-7.8-22.5-19.4-22.5-12.5 0-22.5 8.7-22.5 21.7s10 21.7 22.5 21.7c6.5 0 12.7-2.3 17.5-8.3l-7.4-5.6c-2.6 3.2-5.9 5.6-11.1 5.6-5.8 0-10.4-3.7-11.1-9.8h31.5z"/><path d="M238.1 68.9l-2 4.9c-1.7 4.3-3.1 6.1-8.2 6.1h-6.6v9.3h7.9c9.1 0 12.8-4 15.8-11.8l19.6-50.2h-10.8l-10.3 28.7h-.2l-11.5-28.7h-11.4l17.7 41.7z"/></g><path d="M251.546 80.055c.75 0 1.484.192 2.2.578a4.108 4.108 0 0 1 1.67 1.654c.4.717.6 1.465.6 2.243 0 .77-.197 1.512-.59 2.223a4.157 4.157 0 0 1-1.654 1.657c-.71.393-1.451.59-2.226.59a4.528 4.528 0 0 1-2.226-.59 4.177 4.177 0 0 1-1.657-1.657 4.516 4.516 0 0 1-.593-2.223c0-.778.2-1.526.602-2.243a4.127 4.127 0 0 1 1.675-1.654c.715-.386 1.448-.578 2.199-.578zm0 .74c-.628 0-1.24.162-1.835.484a3.465 3.465 0 0 0-1.396 1.381 3.771 3.771 0 0 0-.504 1.87c0 .644.165 1.262.495 1.853.33.59.792 1.051 1.384 1.381.593.33 1.212.495 1.856.495.644 0 1.263-.165 1.855-.495a3.492 3.492 0 0 0 1.382-1.381c.328-.591.492-1.209.492-1.853 0-.648-.167-1.271-.501-1.87a3.441 3.441 0 0 0-1.396-1.381 3.814 3.814 0 0 0-1.832-.483zm-1.962 6.207V82.19h1.654c.565 0 .974.044 1.227.133.253.09.454.244.604.465.15.222.226.457.226.706 0 .352-.126.658-.377.919-.25.26-.584.407-.999.438.17.072.307.157.41.255.193.19.43.508.71.955l.588.942h-.949l-.427-.759c-.336-.596-.606-.97-.812-1.12-.142-.11-.35-.166-.622-.166h-.457v2.045h-.776zm.776-2.709h.943c.45 0 .758-.067.922-.201a.655.655 0 0 0 .246-.534.65.65 0 0 0-.119-.382.707.707 0 0 0-.329-.252c-.14-.056-.4-.083-.78-.083h-.883v1.452z" fill="#212322"/></g></svg>